# xmcd CD database file
#
# Track frame offsets:
#	150
#	11315
#	24033
#	36719
#	48761
#	65345
#	77232
#	91921
#	104144
#	114096
#	126547
#	138473
#	148343
#	159644
#	174040
#	189797
#	202028
#	214639
#	228045
#	239266
#	258575
#
# Disc length: 3544 seconds
#
# Revision: 0
# Processed by: cddbd v1.4PL0 Copyright (c) Steve Scherf et al.
# Submitted via: CDex 1.50
#
DISCID=1b0dd615
DTITLE=Jag - Pretty Girl Blues
DYEAR=2003
DGENRE=Blues
TTITLE0=House Party Rag
TTITLE1=Irish Jig
TTITLE2=Country Rag
TTITLE3=Her Lushishness
TTITLE4=John Henry
TTITLE5=Merry Go Round
TTITLE6=Ell Arroyo
TTITLE7=Down the Line
TTITLE8=Hoboin'
TTITLE9=MLK Rag
TTITLE10=Jag's Rag
TTITLE11=Hopscotch
TTITLE12=CindyLu
TTITLE13=Preachin' Blues
TTITLE14=Pretty Girl Blues
TTITLE15=The Waterfall
TTITLE16=Pretty Girl
TTITLE17=Red Cross Store
TTITLE18=Sittin' Under the Tree
TTITLE19=Train I Ride
TTITLE20=Jag's Jig
EXTD=YEAR: 2003
EXTT0=
EXTT1=
EXTT2=
EXTT3=
EXTT4=
EXTT5=
EXTT6=
EXTT7=
EXTT8=
EXTT9=
EXTT10=
EXTT11=
EXTT12=
EXTT13=
EXTT14=
EXTT15=
EXTT16=
EXTT17=
EXTT18=
EXTT19=
EXTT20=
PLAYORDER=
